<svg xmlns="http://www.w3.org/2000/svg" width="50" height="50" viewBox="0 0 60 60" style="enable-background:new 0 0 512 512" xml:space="preserve"><g fill="#fff"><path xmlns="http://www.w3.org/2000/svg" d="M57 6H34a3 3 0 0 0-3 3v5.051c-.332-.021-.662-.051-1-.051s-.668.03-1 .051V9a3 3 0 0 0-3-3H3a3 3 0 0 0-3 3v42a3 3 0 0 0 3 3h23a3 3 0 0 0 3-3v-5.051c.332.021.662.051 1 .051s.668-.03 1-.051V51a3 3 0 0 0 3 3h23a3 3 0 0 0 3-3V9a3 3 0 0 0-3-3ZM34 8h23a1 1 0 0 1 1 1v1H33V9a1 1 0 0 1 1-1ZM8 8h13v2a1 1 0 0 1-1 1H9a1 1 0 0 1-1-1Zm19 43a1 1 0 0 1-1 1H3a1 1 0 0 1-1-1V9a1 1 0 0 1 1-1h3v2a3 3 0 0 0 3 3h11a3 3 0 0 0 3-3V8h3a1 1 0 0 1 1 1v5.292a15.99 15.99 0 0 0 0 31.416ZM16 30a14 14 0 1 1 14 14 14.015 14.015 0 0 1-14-14Zm30 0a16.019 16.019 0 0 0-13-15.708V12h25v36H33v-2.292A16.019 16.019 0 0 0 46 30ZM33 51v-1h8.184a2.809 2.809 0 0 0 0 2H34a1 1 0 0 1-1-1Zm11 1a1 1 0 0 1 0-2h3a1 1 0 0 1 0 2Zm13 0h-7.184a2.809 2.809 0 0 0 0-2H58v1a1 1 0 0 1-1 1Z" data-original="#000000"/><path xmlns="http://www.w3.org/2000/svg" d="M8 49a1 1 0 0 0 1 1h11a1 1 0 0 0 0-2H9a1 1 0 0 0-1 1ZM25.707 26.293a1 1 0 0 0-1.414 0l-3 3a1 1 0 0 0 0 1.414l3 3a1 1 0 0 0 1.414-1.414L23.414 30l2.293-2.293a1 1 0 0 0 0-1.414ZM35.707 26.293a1 1 0 0 0-1.414 1.414L36.586 30l-2.293 2.293a1 1 0 1 0 1.414 1.414l3-3a1 1 0 0 0 0-1.414ZM31.242 25.03a1 1 0 0 0-1.212.728l-2 8a1 1 0 0 0 .728 1.212A1.017 1.017 0 0 0 29 35a1 1 0 0 0 .969-.758l2-8a1 1 0 0 0-.727-1.212Z" data-original="#000000"/></g></svg>