<svg xmlns="http://www.w3.org/2000/svg" width="50" height="50" viewBox="0 0 512 512" style="enable-background:new 0 0 512 512" xml:space="preserve"><path d="M457 331.723c-25.127 0-46.356 16.943-52.904 40H351v-58.555h54.213c58.883 0 106.787-47.904 106.787-106.787 0-47.211-31.312-88.685-75.764-102.193-13.437-53.804-62.005-92.393-118.254-92.393-21.805 0-42.693 5.623-61.127 16.366C237.332 10.307 211.733.277 184.836.277 127.143.277 79.989 46.268 78.107 103.51 32.446 116.273 0 158.08 0 206.381c0 58.883 47.904 106.787 106.787 106.787H161v58.555h-53.096c-6.547-23.057-27.777-40-52.904-40-30.327 0-55 24.673-55 55s24.673 55 55 55c25.127 0 46.356-16.943 52.904-40H176c8.284 0 15-6.716 15-15v-73.555h50v90.651c-23.057 6.547-40 27.777-40 52.904 0 30.327 24.673 55 55 55s55-24.673 55-55c0-25.127-16.943-46.356-40-52.904v-90.651h50v73.555c0 8.284 6.716 15 15 15h68.096c6.547 23.057 27.777 40 52.904 40 30.327 0 55-24.673 55-55s-24.673-55-55-55zm-402 80c-13.785 0-25-11.215-25-25s11.215-25 25-25 25 11.215 25 25-11.215 25-25 25zm226 45c0 13.785-11.215 25-25 25s-25-11.215-25-25 11.215-25 25-25 25 11.215 25 25zM106.787 283.168c-42.34 0-76.787-34.446-76.787-76.787 0-37.843 28.207-70.506 65.61-75.976 7.893-1.154 13.501-8.284 12.765-16.226a77.48 77.48 0 0 1-.327-7.116c0-42.339 34.447-76.785 76.787-76.785 22.59 0 43.893 9.82 58.445 26.942 5.109 6.011 14 7.037 20.345 2.349 15.732-11.628 34.528-17.774 54.356-17.774 45.628 0 83.573 33.479 90.666 77.03a15 15 0 0 0 11.829 12.29c35.649 7.217 61.523 38.87 61.523 75.266 0 42.341-34.447 76.787-76.787 76.787H106.787zM457 411.723c-13.785 0-25-11.215-25-25s11.215-25 25-25 25 11.215 25 25-11.215 25-25 25z" fill="#fff" data-original="#000000" xmlns="http://www.w3.org/2000/svg"/></svg>