<svg xmlns="http://www.w3.org/2000/svg" width="50" height="50" viewBox="0 0 512 512" style="enable-background:new 0 0 512 512" xml:space="preserve"><path d="M405.482 90.273c-23.357-40.811-66.868-66.164-113.551-66.165-47.019 0-89.826 25-113.28 65.69-8.465-2.877-17.298-4.332-26.344-4.332-21.743 0-42.268 8.445-57.796 23.779-13.832 13.66-22.333 31.432-24.346 50.627-18.04 1.85-34.749 9.892-47.636 23.056C8.001 197.769 0 217.424 0 238.274c0 43.468 35.085 78.831 78.21 78.831h65.111a7.5 7.5 0 0 0 0-15H78.21c-34.854 0-63.21-28.634-63.21-63.831 0-34.705 27.959-63.329 62.326-63.806a7.5 7.5 0 0 0 7.394-7.327c.412-17.912 7.633-34.683 20.332-47.223 12.702-12.544 29.484-19.452 47.256-19.452 9.29 0 18.302 1.876 26.788 5.577a7.5 7.5 0 0 0 9.676-3.46c20.021-39.152 59.549-63.475 103.16-63.475 41.317 0 79.84 22.46 100.533 58.616a7.5 7.5 0 1 0 13.017-7.451zM429.618 159.444h-6.715a134.654 134.654 0 0 0-1.67-24.641 7.5 7.5 0 0 0-14.809 2.393 119.434 119.434 0 0 1 1.52 19.009 120.4 120.4 0 0 1-.435 10.108 7.5 7.5 0 0 0 7.473 8.131h14.635c34.855 0 63.211 28.634 63.211 63.83s-28.356 63.831-63.211 63.831H320.27a7.5 7.5 0 0 0 0 15h109.348c43.126 0 78.211-35.363 78.211-78.831s-35.085-78.83-78.211-78.83z" fill="#fff" data-original="#000000" xmlns="http://www.w3.org/2000/svg"/><path d="m190.38 253.484-19.987-30.851c4.848-5.018 7.842-11.858 7.842-19.393 0-15.352-12.41-27.841-27.664-27.841-15.254 0-27.665 12.49-27.665 27.841 0 15.352 12.41 27.842 27.665 27.842a27.44 27.44 0 0 0 6.861-.868l20.359 31.427c.707 1.091 1.513 3.817 1.513 5.118v93.234H11.52a7.5 7.5 0 0 0 0 15h170.284c6.893-.001 12.5-5.609 12.5-12.501v-95.734c0-4.183-1.65-9.765-3.924-13.274zm-39.808-37.403c-6.984 0-12.665-5.761-12.665-12.842s5.681-12.841 12.665-12.841c6.983 0 12.664 5.761 12.664 12.841 0 7.081-5.681 12.842-12.664 12.842z" fill="#fff" data-original="#000000" xmlns="http://www.w3.org/2000/svg"/><path d="M333.312 175.398c-12.672 0-23.373 8.623-26.636 20.341h-53.852c-3.263-11.719-13.964-20.341-26.637-20.341-15.254 0-27.664 12.49-27.664 27.841 0 12.271 7.932 22.705 18.904 26.403v175.417H136a7.5 7.5 0 0 0 0 15h83.928c6.893 0 12.5-5.607 12.5-12.5V230.358c9.843-2.293 17.687-9.884 20.396-19.619h53.852c3.262 11.719 13.964 20.342 26.636 20.342 15.254 0 27.664-12.49 27.664-27.842 0-15.352-12.41-27.841-27.664-27.841zm-107.125 40.683c-6.982 0-12.664-5.761-12.664-12.842s5.681-12.841 12.664-12.841 12.665 5.761 12.665 12.841c0 7.081-5.681 12.842-12.665 12.842zm107.124 0c-6.983 0-12.664-5.761-12.664-12.842 0-7.08 5.681-12.841 12.664-12.841s12.664 5.761 12.664 12.841c0 7.081-5.681 12.842-12.664 12.842zM87.999 405.059H58.347c-3.225-11.823-13.88-20.342-26.65-20.342-.253 0-.507.004-.76.011-15.247.414-27.317 13.235-26.907 28.58C4.437 428.5 16.58 440.4 31.675 440.4c.251 0 .505-.003.758-.01 12.406-.337 22.708-8.889 25.895-20.331h29.671a7.5 7.5 0 0 0 0-15zm-55.975 20.336-.35.004c-6.906 0-12.462-5.488-12.649-12.493-.189-7.08 5.337-12.995 12.321-13.185l.351-.005c6.905 0 12.46 5.488 12.648 12.494.189 7.08-5.338 12.995-12.321 13.185zM504.5 452.55H165.891c-3.225-11.823-13.88-20.342-26.65-20.342-.252 0-.507.004-.76.011-12.405.337-22.707 8.89-25.895 20.332H11.52a7.5 7.5 0 0 0 0 15h101.046c3.226 11.822 13.882 20.341 26.652 20.341.251 0 .505-.003.758-.01 12.406-.337 22.708-8.889 25.896-20.331H504.5a7.5 7.5 0 0 0 7.5-7.5 7.5 7.5 0 0 0-7.5-7.501zm-364.932 20.337-.35.004c-6.906 0-12.463-5.488-12.65-12.493-.189-7.081 5.338-12.996 12.321-13.185l.351-.005c6.905 0 12.46 5.488 12.648 12.494.19 7.08-5.337 12.995-12.32 13.185zM504.5 359.992H392a7.5 7.5 0 0 0-7.5 7.5 7.5 7.5 0 0 0 7.5 7.5h112.5a7.5 7.5 0 0 0 7.5-7.5 7.5 7.5 0 0 0-7.5-7.5z" fill="#fff" data-original="#000000" xmlns="http://www.w3.org/2000/svg"/><path d="M344.999 359.992h-57.851V285.82c11.351-3.472 19.636-14.1 19.636-26.642 0-15.352-12.41-27.841-27.665-27.841-15.254 0-27.664 12.49-27.664 27.841 0 12.929 8.803 23.827 20.693 26.945v76.369c0 6.892 5.608 12.5 12.5 12.5h60.351a7.5 7.5 0 0 0 7.5-7.5 7.5 7.5 0 0 0-7.5-7.5zm-65.88-87.973c-6.983 0-12.664-5.76-12.664-12.841s5.681-12.841 12.664-12.841 12.665 5.761 12.665 12.841c0 7.081-5.682 12.841-12.665 12.841zM504.5 405.059h-29.003c-3.224-11.823-13.879-20.342-26.649-20.342-.253 0-.508.004-.761.011-12.406.337-22.708 8.89-25.895 20.331H305.781c-3.225-11.823-13.879-20.342-26.65-20.342-.253 0-.508.004-.761.011-15.246.415-27.316 13.235-26.907 28.58.407 15.192 12.55 27.092 27.644 27.092.252 0 .506-.003.759-.01 12.406-.337 22.708-8.889 25.896-20.331h116.411c3.225 11.822 13.88 20.341 26.651 20.341.252 0 .506-.003.759-.01 12.406-.337 22.708-8.889 25.894-20.331H504.5a7.5 7.5 0 0 0 7.5-7.5 7.5 7.5 0 0 0-7.5-7.5zm-225.041 20.336-.351.004c-6.905 0-12.462-5.488-12.649-12.493-.189-7.08 5.338-12.995 12.321-13.185l.352-.005c6.904 0 12.46 5.488 12.647 12.494.19 7.08-5.337 12.995-12.32 13.185zm169.717 0-.351.004c-6.906 0-12.462-5.487-12.649-12.493-.19-7.08 5.337-12.995 12.32-13.185l.352-.005c6.904 0 12.46 5.488 12.647 12.494.19 7.08-5.337 12.995-12.319 13.185zM279.119 106.746c-15.254 0-27.664 12.49-27.664 27.841 0 15.352 12.41 27.841 27.664 27.841 15.255.001 27.665-12.489 27.665-27.841s-12.41-27.841-27.665-27.841zm0 40.682c-6.983 0-12.664-5.76-12.664-12.841s5.681-12.841 12.664-12.841 12.665 5.761 12.665 12.841c0 7.081-5.682 12.841-12.665 12.841z" fill="#fff" data-original="#000000" xmlns="http://www.w3.org/2000/svg"/></svg>