<svg xmlns="http://www.w3.org/2000/svg" width="50" height="50" viewBox="0 0 512 512" style="enable-background:new 0 0 512 512" xml:space="preserve"><g xmlns="http://www.w3.org/2000/svg" fill="#335ded"><path d="M243.519 505.32a15.001 15.001 0 0 0 24.962 0c35.499-53.247 87.786-119.008 124.222-185.889C421.837 265.955 436 220.346 436 180 436 80.748 355.252 0 256 0S76 80.748 76 180c0 40.346 14.163 85.955 43.297 139.431 36.409 66.83 88.796 132.752 124.222 185.889zM256 30c82.71 0 150 67.29 150 150 0 35.204-12.967 76.118-39.641 125.079-31.407 57.649-76.225 116.128-110.359 165.29-34.129-49.155-78.95-107.638-110.359-165.29C118.967 256.118 106 215.204 106 180c0-82.71 67.29-150 150-150z" data-original="#000000"/><path d="M256 270c49.626 0 90-40.374 90-90s-40.374-90-90-90-90 40.374-90 90 40.374 90 90 90zm0-150c33.084 0 60 26.916 60 60s-26.916 60-60 60-60-26.916-60-60 26.916-60 60-60z" data-original="#000000"/></g></svg>