<svg xmlns="http://www.w3.org/2000/svg" width="50" height="50" viewBox="0 0 64 64" style="enable-background:new 0 0 512 512" xml:space="preserve"><g fill="#0c5adb"><path xmlns="http://www.w3.org/2000/svg" d="M26 35a9 9 0 1 0-9-9 9.01 9.01 0 0 0 9 9zm0-16a7 7 0 1 1-7 7 7.009 7.009 0 0 1 7-7z" data-original="#000000"/><path xmlns="http://www.w3.org/2000/svg" d="M24 29a1 1 0 0 0 .707-.293l5-5-1.414-1.414L24 26.586l-1.293-1.293-1.414 1.414 2 2A1 1 0 0 0 24 29z" data-original="#000000"/><path xmlns="http://www.w3.org/2000/svg" d="M62 1h-7v2h4.586L52 10.586l-2.293-2.293a1 1 0 0 0-1.376-.036L38.616 17h-3.257a12.949 12.949 0 0 0-18.718 0H10a5.006 5.006 0 0 0-5 5v31a4 4 0 0 0-4 4 6.006 6.006 0 0 0 6 6h50a6.006 6.006 0 0 0 6-6 4 4 0 0 0-4-4V22a5.006 5.006 0 0 0-5-5H41.606l7.358-6.622 2.329 2.329a1 1 0 0 0 1.414 0L61 4.414V9h2V2a1 1 0 0 0-1-1zM26 15a11 11 0 1 1-11 11 11.013 11.013 0 0 1 11-11zm12.637 8H53v26H11V23h2.363a12.981 12.981 0 0 0 18.709 14.486l7.393 7.393a3.828 3.828 0 0 0 5.414-5.414l-7.393-7.393A12.817 12.817 0 0 0 38.637 23zM36.38 33.794l7.085 7.085a1.829 1.829 0 0 1-2.586 2.586l-7.085-7.085a13.091 13.091 0 0 0 2.586-2.586zM61 57a4 4 0 0 1-4 4H7a4 4 0 0 1-4-4 2 2 0 0 1 2-2h18.382l1.723 3.447A1 1 0 0 0 26 59h12a1 1 0 0 0 .9-.553L40.618 55H59a2 2 0 0 1 2 2zm-35.382-2h12.764l-1 2H26.618zM57 22v31H7V22a3 3 0 0 1 3-3h5.063A12.994 12.994 0 0 0 14 21h-4a1 1 0 0 0-1 1v28a1 1 0 0 0 1 1h44a1 1 0 0 0 1-1V22a1 1 0 0 0-1-1H38a12.994 12.994 0 0 0-1.06-2H54a3 3 0 0 1 3 3z" data-original="#000000"/><path xmlns="http://www.w3.org/2000/svg" d="M13 45h2v2h-2zM17 45h2v2h-2zM21 45h2v2h-2z" data-original="#000000"/></g></svg>