<svg xmlns="http://www.w3.org/2000/svg" width="50" height="50" viewBox="0 0 32 32" style="enable-background:new 0 0 512 512" xml:space="preserve"><path d="M30.035 22.594c-.053-.044-6.042-4.33-7.667-4.049-.781.138-1.228.67-2.123 1.737a30.54 30.54 0 0 1-.759.876 12.458 12.458 0 0 1-1.651-.672 13.7 13.7 0 0 1-6.321-6.321 12.458 12.458 0 0 1-.672-1.651c.294-.269.706-.616.882-.764 1.061-.89 1.593-1.337 1.731-2.119.283-1.619-4.005-7.613-4.049-7.667A2.289 2.289 0 0 0 7.7 1C5.962 1 1 7.436 1 8.521c0 .063.091 6.467 7.988 14.5C17.012 30.909 23.416 31 23.479 31 24.564 31 31 26.038 31 24.3a2.287 2.287 0 0 0-.965-1.706zm-6.666 6.4c-.874-.072-6.248-.781-12.967-7.382C3.767 14.857 3.076 9.468 3.007 8.633a27.054 27.054 0 0 1 4.706-5.561c.04.04.093.1.161.178a35.391 35.391 0 0 1 3.574 6.063 11.886 11.886 0 0 1-1.016.911 10.033 10.033 0 0 0-1.512 1.422l-.243.34.072.411a11.418 11.418 0 0 0 .965 2.641 15.71 15.71 0 0 0 7.248 7.247 11.389 11.389 0 0 0 2.641.966l.411.072.34-.243a10.117 10.117 0 0 0 1.428-1.518c.313-.374.732-.873.89-1.014a35.163 35.163 0 0 1 6.078 3.578c.083.07.141.124.18.159a27.031 27.031 0 0 1-5.561 4.707z" fill="#335ded" data-original="#000000" xmlns="http://www.w3.org/2000/svg" data-name="Layer 3"/></svg>