<svg xmlns="http://www.w3.org/2000/svg" width="40" height="40" viewBox="0 0 120.166 120.166" style="enable-background:new 0 0 512 512" xml:space="preserve"><g fill="#fff" xmlns="http://www.w3.org/2000/svg"><circle cx="19.718" cy="39.704" r="9.289" data-original="#000000"/><path d="M37.786 79.604a4.263 4.263 0 0 0-4.234-3.771h-.002l-7.389.006V65.684c2.479 2.174 5.281 3.545 8.941 3.545 2.232 0 4.787-.512 7.777-1.656a3.606 3.606 0 0 0-2.578-6.735c-7.281 2.789-8.717 1.231-15.113-7.511-.014-.02-.031-.032-.047-.052-1.225-1.913-3.373-3.202-5.426-3.705 0 0-.977-.294-2.018-.271-.996.022-2.105.255-2.105.255l-.027.004c-3.125.765-6.453 3.311-6.453 7.131l.002 20.503c0 4.457 4.426 7.215 8.523 7.213.229 0 .457-.021.686-.035l11.434-.01 2.439 21.056a4.264 4.264 0 0 0 4.727 3.742 4.263 4.263 0 0 0 3.742-4.725l-2.879-24.829z" data-original="#000000"/><path d="M28.632 89.195a3.607 3.607 0 0 0-3.607-3.606H7.212V56.985a3.607 3.607 0 0 0-7.212 0v32.21c0 1.32.713 2.474 1.771 3.103a8.429 8.429 0 0 0-1.08 4.138v10.084a3.02 3.02 0 1 0 6.039 0V96.435a2.473 2.473 0 0 1 2.471-2.471h10.082a2.474 2.474 0 0 1 2.471 2.471v10.083a3.02 3.02 0 1 0 6.04 0V96.435a8.443 8.443 0 0 0-1.041-4.073 3.611 3.611 0 0 0 1.879-3.167z" data-original="#000000"/><circle cx="100.445" cy="39.704" r="9.289" data-original="#000000"/><path d="M102.527 84.404c4.101 0 8.523-2.756 8.523-7.213V56.688c0-3.82-3.326-6.366-6.451-7.131l-.026-.004s-1.111-.232-2.105-.255c-1.041-.023-2.018.271-2.018.271-2.054.503-4.201 1.792-5.427 3.705-.016.02-.032.032-.047.052-6.396 8.743-7.832 10.3-15.113 7.511a3.608 3.608 0 0 0-4.657 2.078 3.607 3.607 0 0 0 2.08 4.657c2.989 1.146 5.543 1.656 7.776 1.656 3.66 0 6.461-1.371 8.941-3.545v10.154l-7.389-.006h-.004a4.259 4.259 0 0 0-4.232 3.771L79.5 104.431a4.263 4.263 0 0 0 8.467.983l2.441-21.055 11.434.008c.226.017.458.037.685.037z" data-original="#000000"/><path d="M120.166 89.195v-32.21a3.606 3.606 0 0 0-7.211 0v28.604H95.143a3.607 3.607 0 0 0-1.728 6.772 8.466 8.466 0 0 0-1.039 4.072v10.083a3.02 3.02 0 1 0 6.041 0V96.435a2.473 2.473 0 0 1 2.472-2.471h10.081a2.474 2.474 0 0 1 2.472 2.471v10.083a3.02 3.02 0 1 0 6.04 0V96.435a8.453 8.453 0 0 0-1.08-4.138 3.613 3.613 0 0 0 1.764-3.102zM82.837 73.431a3.456 3.456 0 0 0-3.455-3.455H39.3a3.456 3.456 0 0 0 0 6.91h4.74v30.685h30.601V76.886h4.741a3.455 3.455 0 0 0 3.455-3.455zM35.541 34.752h.834l-2.061 4.971 5.864-4.971h5.741v-2.443a2.616 2.616 0 0 1 2.616-2.615h23.258v-16.45a2.616 2.616 0 0 0-2.615-2.617H35.541a2.617 2.617 0 0 0-2.616 2.617v18.892a2.616 2.616 0 0 0 2.616 2.616zm24.831-15.644a2.52 2.52 0 1 1-.001 5.039 2.52 2.52 0 0 1 .001-5.039zm-7.875 0a2.52 2.52 0 1 1-.001 5.039 2.52 2.52 0 0 1 .001-5.039zm-8.15 0a2.52 2.52 0 1 1-.002 5.04 2.52 2.52 0 0 1 .002-5.04z" data-original="#000000"/><path d="M47.871 34.262v18.893a2.617 2.617 0 0 0 2.616 2.615h29l5.865 4.97-2.062-4.97h.835a2.616 2.616 0 0 0 2.617-2.615V34.262a2.616 2.616 0 0 0-2.617-2.616H50.487a2.617 2.617 0 0 0-2.616 2.616zm27.447 6.346a2.52 2.52 0 1 1 0 5.04 2.52 2.52 0 0 1 0-5.04zm-7.875 0a2.52 2.52 0 1 1 0 5.04 2.52 2.52 0 0 1 0-5.04zm-8.149 0a2.52 2.52 0 1 1-.002 5.04 2.52 2.52 0 0 1 .002-5.04z" data-original="#000000"/></g></svg>