<svg xmlns="http://www.w3.org/2000/svg" width="50" height="50" viewBox="0 0 64 64" style="enable-background:new 0 0 512 512" xml:space="preserve"><g xmlns="http://www.w3.org/2000/svg" fill="#fff"><path d="M29 27h2v-2h2v2h2v-2.556c1.19-.694 2-1.97 2-3.444a3.974 3.974 0 0 0-1.382-3A3.974 3.974 0 0 0 37 15c0-1.474-.81-2.75-2-3.444V9h-2v2h-2V9h-2v2h-2v2h2v10h-2v2h2zm4-14c1.103 0 2 .897 2 2s-.897 2-2 2h-2v-4zm-2 6h2c1.103 0 2 .897 2 2s-.897 2-2 2h-2z" data-original="#000000"/><path d="M32 31c7.168 0 13-5.832 13-13S39.168 5 32 5s-13 5.832-13 13 5.832 13 13 13zm0-24c6.065 0 11 4.935 11 11s-4.935 11-11 11-11-4.935-11-11S25.935 7 32 7z" data-original="#000000"/><path d="M47.516 11.086C44.86 5.151 38.911 1 32 1S19.14 5.151 16.485 11.085C7.756 11.859 1 19.161 1 28c0 9.374 7.626 17 17 17 4.14 0 7.998-1.482 11-4.032v2.647c0 2.534-.354 5.026-1.049 7.439C16.712 51.347 11 52.671 11 55v4c0 3.48 13.157 4 21 4s21-.52 21-4v-4c0-2.329-5.712-3.653-16.951-3.945A26.826 26.826 0 0 1 35 43.615v-2.667A16.995 16.995 0 0 0 46 45c9.374 0 17-7.626 17-17 0-8.844-6.753-16.142-15.484-16.914zm.608 12.266c.532.361.876.964.876 1.648 0 1.103-.897 2-2 2h-.604a16.949 16.949 0 0 0 1.728-3.648zM49 31c0 1.103-.897 2-2 2h-2v-4h2c1.103 0 2 .897 2 2zm-6 2h-2v2h2v2h2v-2h2v2h2v-2.556c1.19-.694 2-1.97 2-3.444a3.974 3.974 0 0 0-1.382-3A3.974 3.974 0 0 0 51 25a3.972 3.972 0 0 0-2.339-3.625A16.99 16.99 0 0 0 49 18c0-.199-.023-.392-.03-.589A10.936 10.936 0 0 1 57 28c0 6.065-4.935 11-11 11a10.976 10.976 0 0 1-9.034-4.744A16.965 16.965 0 0 0 43 30.938zM32 3c8.271 0 15 6.729 15 15s-6.729 15-15 15-15-6.729-15-15S23.729 3 32 3zm1 35.949v4.666A28.8 28.8 0 0 0 34.563 53h-5.125A28.821 28.821 0 0 0 31 43.615v-4.654a16.96 16.96 0 0 0 1.008-1.32c.312.453.641.892.992 1.308zm-12.006-8.017c.001.023.006.045.006.068 0 1.103-.897 2-2 2h-2v-4h2.062a16.947 16.947 0 0 0 1.932 1.932zM17 27v-1.017c.186.349.395.683.604 1.017zm-1.719-6H13v2h2v10h-2v2h2v2h2v-2h2v2h2v-2.556a3.993 3.993 0 0 0 1.777-2.184 16.92 16.92 0 0 0 4.257 1.996A10.976 10.976 0 0 1 18 39c-6.065 0-11-4.935-11-11 0-5.017 3.311-9.282 8.03-10.588-.007.197-.03.389-.03.588 0 1.025.107 2.024.281 3zM18 43C9.729 43 3 36.271 3 28c0-7.476 5.472-13.72 12.708-14.825a16.765 16.765 0 0 0-.473 2.133A12.921 12.921 0 0 0 5 28c0 7.168 5.832 13 13 13 4.57 0 8.763-2.384 11.116-6.264.708.122 1.43.196 2.165.227A14.926 14.926 0 0 1 18 43zm-5 14.016c.571.241 1.244.455 2 .643v1.959c-1.107-.281-1.76-.557-2-.776zm34 1.055v1.965c-.593.102-1.265.2-2 .293V58.36a45.913 45.913 0 0 0 2-.289zm-4 2.477c-.625.059-1.294.114-2 .164v-1.981a82.383 82.383 0 0 0 2-.157zm-4 .285c-.638.032-1.304.06-2 .084v-1.993c.66-.021 1.329-.047 2-.079zm-4 .136c-.644.012-1.312.02-2 .024v-1.996c.642-.004 1.311-.011 2-.023zm-4 .024a156.34 156.34 0 0 1-2-.024v-1.995c.689.012 1.358.02 2 .023zm-4-.076c-.696-.023-1.362-.052-2-.084v-1.988c.671.032 1.34.058 2 .079zm-4-.205a80.859 80.859 0 0 1-2-.164v-1.974c.657.06 1.326.112 2 .157zm-4-.383a46.069 46.069 0 0 1-2-.293v-1.965a44.43 44.43 0 0 0 2 .289zm30-.71V57.66a13.594 13.594 0 0 0 2-.643v1.827c-.24.217-.893.493-2 .775zM37.478 55l-.549-1.371c-.074-.184-.138-.37-.207-.555 8.472.271 12.865 1.23 14.057 1.924C49.434 55.767 43.884 57 32 57s-17.434-1.233-18.778-2.002c1.192-.694 5.584-1.653 14.057-1.924-.069.185-.133.371-.207.555L26.522 55zM46 43a15.016 15.016 0 0 1-12.855-7.281c.132-.26.253-.527.373-.795.462-.041.915-.109 1.366-.187A12.983 12.983 0 0 0 46 41c7.168 0 13-5.832 13-13a12.92 12.92 0 0 0-10.234-12.693 16.923 16.923 0 0 0-.473-2.132A14.987 14.987 0 0 1 61 28c0 8.271-6.729 15-15 15zM3 7h2V5h2V3H5V1H3v2H1v2h2z" data-original="#000000"/><path d="M11 49v-2H9v-2H7v2H5v2h2v2h2v-2zM5 57H3v2H1v2h2v2h2v-2h2v-2H5zM59 53h-2v2h-2v2h2v2h2v-2h2v-2h-2zM49 7h2V5h2V3h-2V1h-2v2h-2v2h2zM61 11V9h-2v2h-2v2h2v2h2v-2h2v-2zM9 7h2v2H9zM17 1h2v2h-2zM61 45h2v2h-2zM39 47h2v2h-2zM57 1h2v2h-2zM53 9h2v2h-2zM51 49h2v2h-2zM25 45h2v2h-2zM1 41h2v2H1zM1 13h2v2H1z" data-original="#000000"/></g></svg>