<svg xmlns="http://www.w3.org/2000/svg" width="50" height="50" viewBox="0 0 64 64" style="enable-background:new 0 0 512 512" xml:space="preserve"><g xmlns="http://www.w3.org/2000/svg" fill="#fff"><path d="M18 16a7 7 0 1 0-7-7 7.008 7.008 0 0 0 7 7Zm0-12a5 5 0 1 1-5 5 5.006 5.006 0 0 1 5-5Z" data-original="#000000"/><path d="m10.314 13.747-.759.433A9.02 9.02 0 0 0 5 22v6a3 3 0 0 0 3 3h20a3 3 0 0 0 3-3v-6a9.02 9.02 0 0 0-4.555-7.82l-.759-.433-.531.7a8.973 8.973 0 0 1-14.31 0ZM18 20a10.9 10.9 0 0 0 8.152-3.629A7.015 7.015 0 0 1 29 22v6a1 1 0 0 1-1 1H8a1 1 0 0 1-1-1v-6a7.015 7.015 0 0 1 2.848-5.629A10.9 10.9 0 0 0 18 20ZM30 55a7.008 7.008 0 0 0 7 7h15a7.008 7.008 0 0 0 7-7V40a7.008 7.008 0 0 0-7-7H37a7.008 7.008 0 0 0-7 7Zm27 0a5.006 5.006 0 0 1-5 5H37a5.006 5.006 0 0 1-5-5V43h25ZM32 40a5.006 5.006 0 0 1 5-5h15a5.006 5.006 0 0 1 5 5v1H32Z" data-original="#000000"/><path d="M36.71 37.29a1 1 0 1 0 0 1.42 1.032 1.032 0 0 0 .21-.33.942.942 0 0 0 0-.76.933.933 0 0 0-.21-.33ZM39.8 37.02a.636.636 0 0 0-.18.06.782.782 0 0 0-.181.09 1.7 1.7 0 0 0-.149.12 1.014 1.014 0 0 0 0 1.42l.149.12a.782.782 0 0 0 .181.09.636.636 0 0 0 .18.06 1.487 1.487 0 0 0 .2.02 1 1 0 0 0 .71-1.71 1.038 1.038 0 0 0-.91-.27ZM43.62 37.08a1.032 1.032 0 0 0-.33.21 1.014 1.014 0 0 0 0 1.42 1.032 1.032 0 0 0 .33.21A1 1 0 0 0 44 39a1 1 0 0 0 .71-1.71 1 1 0 0 0-1.09-.21ZM45.367 26.87 49 30l3.13-3.633-.213-2.867-2.317 2.683A19.021 19.021 0 0 0 31 11v2a17.025 17.025 0 0 1 16.529 13.046L45.154 24ZM12.633 37.13 9 34l-3.13 3.633.213 2.867L8.4 37.817A19.021 19.021 0 0 0 27 53v-2a17.025 17.025 0 0 1-16.529-13.046L12.846 40Z" data-original="#000000"/></g></svg>