<svg xmlns="http://www.w3.org/2000/svg" width="50" height="50" viewBox="0 0 32 32" style="enable-background:new 0 0 512 512" xml:space="preserve"><path d="M30 25h-1V12c0-1.654-1.346-3-3-3h-6.077C20.435 8.251 21 7.324 21 6c0-2.757-2.243-5-5-5s-5 2.243-5 5c0 1.138.42 2.15.88 3H6c-1.654 0-3 1.346-3 3v13H2a1 1 0 0 0-1 1v2c0 1.654 1.346 3 3 3h24c1.654 0 3-1.346 3-3v-2a1 1 0 0 0-1-1zM15 12h2v.5c0 .271-.229.5-.5.5h-1a.507.507 0 0 1-.5-.5zm1-9c1.654 0 3 1.346 3 3 0 .82-.38 1.369-.859 2.063-.383.553-.793 1.166-1.001 1.937h-2.39c-.157-.348-.374-.704-.607-1.087C13.607 8.035 13 7.039 13 6c0-1.654 1.346-3 3-3zM5 12c0-.552.449-1 1-1h7v1.5c0 1.379 1.122 2.5 2.5 2.5h1c1.379 0 2.5-1.121 2.5-2.5V11h7a1 1 0 0 1 1 1v13H5zm24 16a1 1 0 0 1-1 1H4c-.551 0-1-.448-1-1v-1h9.278c.347.595.985 1 1.722 1h4c.736 0 1.375-.405 1.722-1H29zM7 18a1 1 0 0 1 1-1h1a1 1 0 1 1 0 2H8a1 1 0 0 1-1-1zm9 4H8a1 1 0 1 1 0-2h8a1 1 0 1 1 0 2zM6.105 1.553a1.002 1.002 0 0 1 1.342-.448l2 1a1 1 0 0 1-.894 1.79l-2-1a1.001 1.001 0 0 1-.448-1.342zM6 7a1 1 0 0 1 1-1h2a1 1 0 1 1 0 2H7a1 1 0 0 1-1-1zm16.105-3.553a1 1 0 0 1 .447-1.342l2-1a1 1 0 0 1 .895 1.789l-2 1a1 1 0 0 1-1.342-.447zM22 7a1 1 0 0 1 1-1h2a1 1 0 1 1 0 2h-2a1 1 0 0 1-1-1z" fill="#fff" data-original="#000000" xmlns="http://www.w3.org/2000/svg"/></svg>