<svg xmlns="http://www.w3.org/2000/svg" width="50" height="50" viewBox="0 0 512 512" style="enable-background:new 0 0 512 512" xml:space="preserve"><g fill="#0f2593"><path xmlns="http://www.w3.org/2000/svg" d="M30.732 274.326c0 16.923 13.769 30.691 30.691 30.691s30.691-13.769 30.691-30.691c0-2.273-.256-4.487-.727-6.62l44.094-22.084c5.633 6.526 13.954 10.668 23.23 10.668 23.809 0 38.562-26.079 26.326-46.447l55.252-55.345c12.669 7.581 29.091 5.082 38.941-6.33l44.094 22.085c-4.251 19.257 10.5 37.311 29.965 37.311 26.541 0 40.579-31.629 22.724-51.299l64.321-96.646c19.996 7.102 40.935-7.853 40.935-28.927C481.268 13.769 467.5 0 450.577 0s-30.691 13.769-30.691 30.691c0 7.924 3.019 15.157 7.968 20.608l-64.321 96.646c-11.787-4.187-25.082-.819-33.474 8.904l-44.094-22.085c.471-2.133.727-4.346.727-6.619 0-16.923-13.769-30.691-30.691-30.691-23.8 0-38.566 26.072-26.326 46.447l-55.251 55.345c-22.874-13.689-51.494 6.622-45.675 32.972l-44.094 22.084c-18.492-21.42-53.923-8.387-53.923 20.024zM450.577 15c8.652 0 15.691 7.039 15.691 15.691s-7.039 15.691-15.691 15.691-15.691-7.039-15.691-15.691S441.924 15 450.577 15zm-97.288 146.181c8.652 0 15.691 7.039 15.691 15.691s-7.039 15.691-15.691 15.691-15.691-7.039-15.691-15.691 7.038-15.691 15.691-15.691zM256 112.454c8.652 0 15.691 7.039 15.691 15.691s-7.039 15.691-15.691 15.691-15.691-7.039-15.691-15.691 7.038-15.691 15.691-15.691zm-97.289 97.453c8.652 0 15.691 7.039 15.691 15.691s-7.039 15.691-15.691 15.691-15.691-7.039-15.691-15.691 7.039-15.691 15.691-15.691zm-97.288 80.111c-8.652 0-15.691-7.039-15.691-15.691s7.039-15.691 15.691-15.691 15.691 7.039 15.691 15.691-7.038 15.691-15.691 15.691z" data-original="#000000"/><path xmlns="http://www.w3.org/2000/svg" d="M498.712 497h-9.281V332.193c0-4.143-3.357-7.5-7.5-7.5s-7.5 3.357-7.5 7.5V497h-47.709V123.349h47.709v173.845c0 4.143 3.357 7.5 7.5 7.5s7.5-3.357 7.5-7.5V122.121c0-7.594-6.179-13.772-13.772-13.772h-50.164c-7.594 0-13.772 6.179-13.772 13.772V497h-19.58V268.986c0-7.594-6.178-13.772-13.771-13.772h-7.582c-4.143 0-7.5 3.357-7.5 7.5s3.357 7.5 7.5 7.5h6.354V497h-47.708V270.214h6.354c4.143 0 7.5-3.357 7.5-7.5s-3.357-7.5-7.5-7.5h-7.583c-7.594 0-13.771 6.179-13.771 13.772V497h-19.58V219.834c0-7.594-6.179-13.771-13.772-13.771H230.92c-7.594 0-13.771 6.178-13.771 13.771V497h-19.58V317.713c0-7.594-6.179-13.772-13.772-13.772h-50.164c-7.594 0-13.772 6.179-13.772 13.772V497h-19.58V366.439c0-7.594-6.178-13.771-13.771-13.771H36.341c-7.594 0-13.772 6.178-13.772 13.771V497h-9.281c-4.143 0-7.5 3.357-7.5 7.5s3.357 7.5 7.5 7.5h485.425c4.143 0 7.5-3.357 7.5-7.5s-3.358-7.5-7.501-7.5zm-461.143 0V367.668h47.708V497zm97.288 0V318.94h47.709V497zm97.289 0V221.063h47.708V497z" data-original="#000000"/></g></svg>