<svg xmlns="http://www.w3.org/2000/svg" width="50" height="50" viewBox="0 0 512 512" style="enable-background:new 0 0 512 512" xml:space="preserve"><path xmlns="http://www.w3.org/2000/svg" d="M105.751 245.339a105.667 105.667 0 1 0-74.776-30.923 105.44 105.44 0 0 0 74.776 30.923zM76.229 110.117A41.749 41.749 0 1 1 64 139.639a41.473 41.473 0 0 1 12.229-29.522zM406.25 266.611a105.752 105.752 0 1 0 74.776 30.974 105.052 105.052 0 0 0-74.776-30.974zm29.521 135.272a41.75 41.75 0 0 1-59.043-59.043 41.75 41.75 0 1 1 59.042 59.044zm32.968-358.622a32 32 0 0 1 0 45.255L88.517 468.739a32 32 0 0 1-45.254-45.255L423.485 43.261a32 32 0 0 1 45.254 0z" fill="#fff" data-original="#000000"/></svg>