<svg xmlns="http://www.w3.org/2000/svg" width="50" height="50" viewBox="0 0 64 64" style="enable-background:new 0 0 512 512" xml:space="preserve"><g fill="#fff"><path xmlns="http://www.w3.org/2000/svg" d="M12 24v14h2V24a11.013 11.013 0 0 1 11-11h7.764l-4.211 2.105.894 1.79 8-4a1 1 0 0 0 0-1.79l-8-4-.894 1.795 4.211 2.1H25a13.015 13.015 0 0 0-13 13z" data-original="#000000"/><path xmlns="http://www.w3.org/2000/svg" d="M41.538 24.737a12.073 12.073 0 0 0-2.275-2.275 1.006 1.006 0 0 0-.911-.158l-1.235.4a10.528 10.528 0 0 0-2.16-.9l-.594-1.152a1 1 0 0 0-.756-.533 10.688 10.688 0 0 0-3.214 0 1 1 0 0 0-.756.533l-.594 1.148a10.528 10.528 0 0 0-2.16.9l-1.235-.4a1.008 1.008 0 0 0-.911.158 12.073 12.073 0 0 0-2.275 2.275 1 1 0 0 0-.158.911l.4 1.235a10.528 10.528 0 0 0-.9 2.16l-1.152.594a1 1 0 0 0-.533.756 10.91 10.91 0 0 0 0 3.214 1 1 0 0 0 .533.756l1.152.594a10.528 10.528 0 0 0 .9 2.16l-.4 1.235a1 1 0 0 0 .158.911 12.073 12.073 0 0 0 2.275 2.275 1 1 0 0 0 .911.158l1.235-.395a10.528 10.528 0 0 0 2.16.895l.594 1.152a1 1 0 0 0 .756.533 10.91 10.91 0 0 0 3.214 0 1 1 0 0 0 .756-.533l.594-1.152a10.528 10.528 0 0 0 2.16-.895l1.235.395a1 1 0 0 0 .911-.158 12.073 12.073 0 0 0 2.275-2.275 1 1 0 0 0 .158-.911l-.396-1.231a10.528 10.528 0 0 0 .895-2.16l1.152-.594a1 1 0 0 0 .533-.756 10.91 10.91 0 0 0 0-3.214 1 1 0 0 0-.533-.756l-1.147-.594a10.528 10.528 0 0 0-.895-2.16l.395-1.235a1 1 0 0 0-.162-.911zm.42 6.433c.028.3.042.57.042.83s-.014.53-.042.83l-1.072.552a1 1 0 0 0-.513.653 8.576 8.576 0 0 1-1.013 2.444.993.993 0 0 0-.1.825l.366 1.145a9.929 9.929 0 0 1-1.178 1.178l-1.148-.366a1 1 0 0 0-.825.1 8.576 8.576 0 0 1-2.444 1.013 1 1 0 0 0-.653.513l-.552 1.072a8.079 8.079 0 0 1-1.66 0l-.552-1.072a1 1 0 0 0-.653-.513 8.576 8.576 0 0 1-2.444-1.013 1 1 0 0 0-.825-.1l-1.145.366a9.929 9.929 0 0 1-1.178-1.178l.366-1.145a.993.993 0 0 0-.1-.825 8.576 8.576 0 0 1-1.013-2.444 1 1 0 0 0-.513-.653l-1.072-.552c-.028-.3-.042-.57-.042-.83s.014-.53.042-.83l1.072-.552a1 1 0 0 0 .513-.654 8.582 8.582 0 0 1 1.013-2.443.993.993 0 0 0 .1-.825l-.366-1.145a9.929 9.929 0 0 1 1.178-1.178l1.145.366a1 1 0 0 0 .825-.1 8.576 8.576 0 0 1 2.444-1.013 1 1 0 0 0 .653-.513l.552-1.072a8.079 8.079 0 0 1 1.66 0l.552 1.072a1 1 0 0 0 .653.513 8.576 8.576 0 0 1 2.444 1.013 1 1 0 0 0 .825.1l1.145-.366a9.929 9.929 0 0 1 1.178 1.178l-.362 1.149a.993.993 0 0 0 .1.825 8.576 8.576 0 0 1 1.013 2.444 1 1 0 0 0 .513.653z" data-original="#000000"/><path xmlns="http://www.w3.org/2000/svg" d="M32 26a6 6 0 1 0 6 6 6.006 6.006 0 0 0-6-6zm0 10a4 4 0 1 1 4-4 4 4 0 0 1-4 4zM51 2a11 11 0 1 0 11 11A11.013 11.013 0 0 0 51 2zm0 20a9 9 0 1 1 9-9 9.011 9.011 0 0 1-9 9z" data-original="#000000"/><path xmlns="http://www.w3.org/2000/svg" d="M54 10.5h2A3.779 3.779 0 0 0 52 7V5h-2v2a3.779 3.779 0 0 0-4 3.5 3.779 3.779 0 0 0 4 3.5v3c-1.084 0-2-.687-2-1.5h-2a3.779 3.779 0 0 0 4 3.5v2h2v-2a3.779 3.779 0 0 0 4-3.5 3.779 3.779 0 0 0-4-3.5V9c1.084 0 2 .687 2 1.5zm0 5c0 .813-.916 1.5-2 1.5v-3c1.084 0 2 .687 2 1.5zM50 12c-1.084 0-2-.687-2-1.5S48.916 9 50 9zM2.606 57.633l10 4.286a1 1 0 0 0 .788 0l10-4.286a1 1 0 0 0 .606-.919V45.286a1 1 0 0 0-.606-.919l-10-4.286a1 1 0 0 0-.788 0l-10 4.286a1 1 0 0 0-.606.919v11.428a1 1 0 0 0 .606.919zM4 46.8l8 3.429v9.253l-8-3.427zm10 12.684v-9.253l8-3.431v9.253zm-1-17.4 7.462 3.2L13 48.483l-7.462-3.2zM52 40V26h-2v14a11.013 11.013 0 0 1-11 11h-7.764l4.211-2.1-.894-1.79-8 4a1 1 0 0 0 0 1.79l8 4 .894-1.79L31.236 53H39a13.015 13.015 0 0 0 13-13z" data-original="#000000"/></g></svg>