<svg xmlns="http://www.w3.org/2000/svg" width="50" height="50" viewBox="0 0 48 48" style="enable-background:new 0 0 512 512" xml:space="preserve"><g fill="#0c5adb"><path xmlns="http://www.w3.org/2000/svg" d="M24 48a1.006 1.006 0 0 1-.287-.042 28.977 28.977 0 0 1-13.8-8.45C-.309 28.164 2.075 12.694 2.656 9.708a1 1 0 0 1 .624-.742A236.275 236.275 0 0 0 23.491.133a1.03 1.03 0 0 1 .976-.02A233.46 233.46 0 0 0 35.632 5.27c2.941 1.27 6 2.513 9.088 3.7a1 1 0 0 1 .624.742c.581 2.986 2.965 18.456-7.26 29.8a28.97 28.97 0 0 1-13.758 8.438A1 1 0 0 1 24 48zM4.521 10.631c-.548 3.282-2.244 17.416 6.879 27.537A26.956 26.956 0 0 0 24 45.96a26.956 26.956 0 0 0 12.6-7.792c9.122-10.121 7.426-24.255 6.878-27.537a233.206 233.206 0 0 1-8.636-3.524A234.781 234.781 0 0 1 24 2.112a240.209 240.209 0 0 1-10.842 5 241.518 241.518 0 0 1-8.637 3.519z" data-original="#000000"/><path xmlns="http://www.w3.org/2000/svg" d="M24 34a10 10 0 0 1 0-20 1 1 0 0 1 0 2 8 8 0 1 0 8 8 1 1 0 0 1 2 0 10.011 10.011 0 0 1-10 10z" data-original="#000000"/><path xmlns="http://www.w3.org/2000/svg" d="M25 27a1 1 0 0 1-.707-.293l-4-4a1 1 0 0 1 1.407-1.414l3.21 3.21 7.3-9.128a1 1 0 0 1 1.562 1.25l-8 10a1 1 0 0 1-.725.373z" data-original="#000000"/></g></svg>