<svg xmlns="http://www.w3.org/2000/svg" width="50" height="50" viewBox="0 0 512.001 512.001" style="enable-background:new 0 0 512 512" xml:space="preserve"><path d="M251.371 432.79c-1.86-1.86-4.44-2.931-7.07-2.931s-5.21 1.07-7.07 2.931a10.072 10.072 0 0 0-2.93 7.069c0 2.641 1.07 5.21 2.93 7.07 1.86 1.87 4.44 2.93 7.07 2.93s5.21-1.06 7.07-2.93a10.074 10.074 0 0 0 2.93-7.07c0-2.63-1.071-5.21-2.93-7.069z" fill="#fff" data-original="#000000" xmlns="http://www.w3.org/2000/svg"/><path d="M298.983 340.539v-73.582a10 10 0 0 0-13.736-9.276l-172.313 69.397h-55.5c-31.668 0-57.433 25.765-57.433 57.435s25.765 57.435 57.435 57.435h6.609V502c0 5.522 4.477 10 10 10h40.824c5.523 0 10-4.478 10-10v-55.228l160.383 64.506a9.992 9.992 0 0 0 9.33-.991 10 10 0 0 0 4.401-8.286V428.42c20.054-4.563 35.072-22.525 35.072-43.94s-15.018-39.378-35.072-43.941zM104.868 492H84.045v-50.053h20.824V492zm.002-70.053H57.436c-20.642 0-37.435-16.793-37.435-37.434 0-20.642 16.793-37.435 37.435-37.435h47.438l-.004 74.869zm174.114 65.252h-.001l-154.109-61.983V343.83l109.427-44.07V399c0 5.522 4.477 10 10 10s10-4.478 10-10V291.705l24.683-9.941v205.435zm19.999-79.735v-45.97c8.861 3.87 15.072 12.714 15.072 22.985 0 10.271-6.21 19.115-15.072 22.985zM429.453 374.775h-56.618c-5.523 0-10 4.478-10 10s4.477 10 10 10h56.618c5.523 0 10-4.478 10-10s-4.477-10-10-10zM383.02 301.498c-3.905-3.904-10.237-3.904-14.143 0l-19.53 19.53c-3.905 3.905-3.905 10.237 0 14.143a9.976 9.976 0 0 0 7.072 2.929 9.97 9.97 0 0 0 7.071-2.929l19.53-19.53c3.905-3.905 3.905-10.237 0-14.143zM383.754 452.976l-20.183-20.184c-3.905-3.904-10.237-3.904-14.143 0-3.905 3.905-3.905 10.237 0 14.143l20.184 20.184c1.953 1.952 4.512 2.929 7.071 2.929s5.119-.977 7.071-2.929c3.905-3.905 3.905-10.237 0-14.143z" fill="#fff" data-original="#000000" xmlns="http://www.w3.org/2000/svg"/><path d="M472.001 0h-186c-22.056 0-40 17.944-40 40v4h-168c-13.234 0-24 10.767-24 24v158c0 13.233 10.766 24 24 24h10.333v30.667a10.001 10.001 0 0 0 17.071 7.071L143.143 250h198.638c13.234 0 24-10.767 24-24v-30h106.22c22.056 0 40-17.944 40-40V40c-.001-22.056-17.944-40-40-40zm-126.22 226c0 2.206-1.794 4-4 4h-202.78a10.001 10.001 0 0 0-7.071 2.929l-23.595 23.596V240c0-5.522-4.477-10-10-10H78.001c-2.206 0-4-1.794-4-4V68c0-2.206 1.794-4 4-4h168v92c0 22.056 17.944 40 40 40h59.78v30zm146.22-70c0 11.028-8.972 20-20 20h-186c-11.028 0-20-8.972-20-20V40c0-11.028 8.972-20 20-20h186c11.028 0 20 8.972 20 20v116z" fill="#fff" data-original="#000000" xmlns="http://www.w3.org/2000/svg"/><path d="m419.176 89.34-68.44-39.514a10 10 0 0 0-15 8.66v79.027a10 10 0 0 0 15 8.66l68.44-39.514a10 10 0 0 0 0-17.319zm-63.44 30.853V75.807L394.176 98l-38.44 22.193zM214.512 105h-100c-5.523 0-10 4.478-10 10s4.477 10 10 10h100c5.523 0 10-4.478 10-10s-4.477-10-10-10zM221.581 163.93c-1.86-1.861-4.44-2.93-7.07-2.93s-5.21 1.069-7.07 2.93c-1.86 1.86-2.93 4.44-2.93 7.07s1.07 5.21 2.93 7.069a10.077 10.077 0 0 0 7.07 2.931c2.64 0 5.21-1.07 7.07-2.931 1.86-1.859 2.93-4.439 2.93-7.069s-1.07-5.21-2.93-7.07zM177.001 161h-62.489c-5.523 0-10 4.478-10 10s4.477 10 10 10h62.489c5.523 0 10-4.478 10-10s-4.477-10-10-10z" fill="#fff" data-original="#000000" xmlns="http://www.w3.org/2000/svg"/></svg>